<svg width="52" height="52" viewBox="0 0 52 52" fill="none" xmlns="http://www.w3.org/2000/svg">
<mask id="mask0_73_141" style="mask-type:alpha" maskUnits="userSpaceOnUse" x="0" y="0" width="52" height="52">
<rect width="52" height="52" fill="#D9D9D9"/>
</mask>
<g mask="url(#mask0_73_141)">
<path d="M8.66667 29.3042L14.1375 23.8333L8.66667 18.3625L3.19583 23.8333L8.66667 29.3042ZM37.9167 28.1667L43.3333 19.5L48.75 28.1667H37.9167ZM26 26C24.1944 26 22.6597 25.3681 21.3958 24.1042C20.1319 22.8403 19.5 21.3056 19.5 19.5C19.5 17.6583 20.1319 16.1142 21.3958 14.8677C22.6597 13.6226 24.1944 13 26 13C27.8417 13 29.3851 13.6226 30.6302 14.8677C31.8767 16.1142 32.5 17.6583 32.5 19.5C32.5 21.3056 31.8767 22.8403 30.6302 24.1042C29.3851 25.3681 27.8417 26 26 26ZM26 17.3333C25.3861 17.3333 24.8719 17.5406 24.4573 17.9552C24.0413 18.3712 23.8333 18.8861 23.8333 19.5C23.8333 20.1139 24.0413 20.6281 24.4573 21.0427C24.8719 21.4587 25.3861 21.6667 26 21.6667C26.6139 21.6667 27.1288 21.4587 27.5448 21.0427C27.9594 20.6281 28.1667 20.1139 28.1667 19.5C28.1667 18.8861 27.9594 18.3712 27.5448 17.9552C27.1288 17.5406 26.6139 17.3333 26 17.3333ZM0 39V35.5875C0 33.9986 0.803833 32.7253 2.4115 31.7677C4.01772 30.8114 6.10278 30.3333 8.66667 30.3333C9.13611 30.3333 9.5875 30.342 10.0208 30.3593C10.4542 30.3781 10.8694 30.4236 11.2667 30.4958C10.7611 31.2181 10.3819 31.9944 10.1292 32.825C9.87639 33.6556 9.75 34.5403 9.75 35.4792V39H0ZM13 39V35.4792C13 33.1319 14.2011 31.2361 16.6032 29.7917C19.0038 28.3472 22.1361 27.625 26 27.625C29.9 27.625 33.0417 28.3472 35.425 29.7917C37.8083 31.2361 39 33.1319 39 35.4792V39H13ZM43.3333 30.3333C45.9333 30.3333 48.0278 30.8114 49.6167 31.7677C51.2056 32.7253 52 33.9986 52 35.5875V39H42.25V35.4792C42.25 34.5403 42.1323 33.6556 41.8968 32.825C41.6628 31.9944 41.3111 31.2181 40.8417 30.4958C41.2389 30.4236 41.6455 30.3781 42.0615 30.3593C42.4761 30.342 42.9 30.3333 43.3333 30.3333ZM26 31.9583C23.9417 31.9583 22.1 32.2292 20.475 32.7708C18.85 33.3125 17.8931 33.9444 17.6042 34.6667H34.45C34.125 33.9444 33.1587 33.3125 31.551 32.7708C29.9448 32.2292 28.0944 31.9583 26 31.9583Z" fill="#A005D7"/>
</g>
</svg>
