<svg width="52" height="52" viewBox="0 0 52 52" fill="none" xmlns="http://www.w3.org/2000/svg">
<mask id="mask0_73_148" style="mask-type:alpha" maskUnits="userSpaceOnUse" x="0" y="0" width="52" height="52">
<rect width="52" height="52" fill="#D9D9D9"/>
</mask>
<g mask="url(#mask0_73_148)">
<path d="M34.6667 29.25C35.6056 29.25 36.3819 28.9431 36.9958 28.3292C37.6097 27.7153 37.9167 26.9389 37.9167 26C37.9167 25.0611 37.6097 24.2847 36.9958 23.6708C36.3819 23.0569 35.6056 22.75 34.6667 22.75C33.7278 22.75 32.9514 23.0569 32.3375 23.6708C31.7236 24.2847 31.4167 25.0611 31.4167 26C31.4167 26.9389 31.7236 27.7153 32.3375 28.3292C32.9514 28.9431 33.7278 29.25 34.6667 29.25ZM10.8333 45.5C9.64167 45.5 8.62117 45.0761 7.77183 44.2282C6.92394 43.3788 6.5 42.3583 6.5 41.1667V10.8333C6.5 9.64167 6.92394 8.62117 7.77183 7.77183C8.62117 6.92394 9.64167 6.5 10.8333 6.5H41.1667C42.3583 6.5 43.3788 6.92394 44.2282 7.77183C45.0761 8.62117 45.5 9.64167 45.5 10.8333V16.25H41.1667V10.8333H10.8333V41.1667H41.1667V35.75H45.5V41.1667C45.5 42.3583 45.0761 43.3788 44.2282 44.2282C43.3788 45.0761 42.3583 45.5 41.1667 45.5H10.8333ZM28.1667 36.8333C26.975 36.8333 25.9552 36.4094 25.1073 35.5615C24.258 34.7122 23.8333 33.6917 23.8333 32.5V19.5C23.8333 18.3083 24.258 17.2878 25.1073 16.4385C25.9552 15.5906 26.975 15.1667 28.1667 15.1667H43.3333C44.525 15.1667 45.5455 15.5906 46.3948 16.4385C47.2427 17.2878 47.6667 18.3083 47.6667 19.5V32.5C47.6667 33.6917 47.2427 34.7122 46.3948 35.5615C45.5455 36.4094 44.525 36.8333 43.3333 36.8333H28.1667ZM43.3333 32.5V19.5H28.1667V32.5H43.3333Z" fill="#A005D7"/>
</g>
</svg>
