<svg width="52" height="52" viewBox="0 0 52 52" fill="none" xmlns="http://www.w3.org/2000/svg">
<mask id="mask0_73_156" style="mask-type:alpha" maskUnits="userSpaceOnUse" x="0" y="0" width="52" height="52">
<rect width="52" height="52" fill="#D9D9D9"/>
</mask>
<g mask="url(#mask0_73_156)">
<path d="M10.833 36.834H14.083V33.584H37.9163V36.834H41.1663V28.4923C41.1663 27.734 41.0219 27.0204 40.733 26.3516C40.4441 25.6843 40.0469 25.0979 39.5413 24.5923V19.5007C39.5413 18.309 39.1174 17.2885 38.2695 16.4391C37.4202 15.5913 36.3997 15.1673 35.208 15.1673H28.1663C27.7691 15.1673 27.39 15.2215 27.0288 15.3298C26.6677 15.4381 26.3247 15.6007 25.9997 15.8173C25.6747 15.6007 25.3316 15.4381 24.9705 15.3298C24.6094 15.2215 24.2302 15.1673 23.833 15.1673H16.7913C15.5997 15.1673 14.5799 15.5913 13.732 16.4391C12.8827 17.2885 12.458 18.309 12.458 19.5007V24.5923C11.9525 25.0979 11.5552 25.6843 11.2663 26.3516C10.9775 27.0204 10.833 27.734 10.833 28.4923V36.834ZM14.083 30.334V28.1673C14.083 27.5534 14.2903 27.0385 14.7048 26.6225C15.1208 26.2079 15.6358 26.0006 16.2497 26.0006H35.7497C36.3636 26.0006 36.8778 26.2079 37.2923 26.6225C37.7083 27.0385 37.9163 27.5534 37.9163 28.1673V30.334H14.083ZM15.708 22.7507V18.4173H24.3747V22.7507H15.708ZM27.6247 22.7507V18.4173H36.2913V22.7507H27.6247ZM8.66634 47.6673C7.47467 47.6673 6.4549 47.2434 5.60701 46.3955C4.75767 45.5461 4.33301 44.5257 4.33301 43.334V8.66732C4.33301 7.47565 4.75767 6.45515 5.60701 5.60582C6.4549 4.75793 7.47467 4.33398 8.66634 4.33398H43.333C44.5247 4.33398 45.5452 4.75793 46.3945 5.60582C47.2424 6.45515 47.6663 7.47565 47.6663 8.66732V43.334C47.6663 44.5257 47.2424 45.5461 46.3945 46.3955C45.5452 47.2434 44.5247 47.6673 43.333 47.6673H8.66634ZM8.66634 43.334H43.333V8.66732H8.66634V43.334Z" fill="#A005D7"/>
</g>
</svg>
