<svg width="52" height="52" viewBox="0 0 52 52" fill="none" xmlns="http://www.w3.org/2000/svg">
<mask id="mask0_73_163" style="mask-type:alpha" maskUnits="userSpaceOnUse" x="0" y="0" width="52" height="52">
<rect width="52" height="52" fill="#D9D9D9"/>
</mask>
<g mask="url(#mask0_73_163)">
<path d="M34.667 28.1673C33.0059 26.6507 31.3903 25.1614 29.8202 23.6997C28.2486 22.2364 26.8583 20.8007 25.6493 19.3923C24.4389 17.984 23.4725 16.6204 22.7503 15.3017C22.0281 13.9843 21.667 12.7118 21.667 11.484C21.667 9.46176 22.3531 7.76454 23.7253 6.39232C25.0975 5.0201 26.7948 4.33398 28.817 4.33398C29.9725 4.33398 31.0559 4.57737 32.067 5.06415C33.0781 5.55237 33.9448 6.21176 34.667 7.04232C35.3892 6.21176 36.2559 5.55237 37.267 5.06415C38.2781 4.57737 39.3614 4.33398 40.517 4.33398C42.5392 4.33398 44.2364 5.0201 45.6087 6.39232C46.9809 7.76454 47.667 9.46176 47.667 11.484C47.667 12.7118 47.3059 13.9843 46.5837 15.3017C45.8614 16.6204 44.8958 17.984 43.6868 19.3923C42.4764 20.8007 41.0948 22.2364 39.542 23.6997C37.9892 25.1614 36.3642 26.6507 34.667 28.1673ZM34.667 22.3173C36.7976 20.2951 38.775 18.2815 40.5993 16.2767C42.4222 14.2732 43.3337 12.6757 43.3337 11.484C43.3337 10.6534 43.0722 9.97598 42.5493 9.45165C42.025 8.92876 41.3475 8.66732 40.517 8.66732C40.0114 8.66732 39.5333 8.76626 39.0827 8.96415C38.6306 9.16348 38.242 9.46176 37.917 9.85898L34.667 13.759L31.417 9.85898C31.092 9.46176 30.7042 9.16348 30.2535 8.96415C29.8014 8.76626 29.3225 8.66732 28.817 8.66732C27.9864 8.66732 27.3097 8.92876 26.7868 9.45165C26.2625 9.97598 26.0003 10.6534 26.0003 11.484C26.0003 12.6757 26.9118 14.2732 28.7347 16.2767C30.559 18.2815 32.5364 20.2951 34.667 22.3173ZM30.3337 48.7507L15.167 44.5257V47.6673H2.16699V23.834H19.392L32.8253 28.8173C34.017 29.2507 34.9833 30.009 35.7243 31.0923C36.4639 32.1757 36.8337 33.3673 36.8337 34.6673H41.167C42.9725 34.6673 44.5073 35.2632 45.7712 36.4548C47.035 37.6465 47.667 39.2173 47.667 41.1673V43.334L30.3337 48.7507ZM6.50033 43.334H10.8337V28.1673H6.50033V43.334ZM30.2253 44.2007L43.117 40.1923C43.0087 39.7951 42.7645 39.4968 42.3847 39.2975C42.0062 39.0996 41.6003 39.0007 41.167 39.0007H30.767C29.6475 39.0007 28.6364 38.9284 27.7337 38.784C26.8309 38.6395 25.8559 38.3868 24.8087 38.0257L21.0712 36.7257L22.317 32.609L26.6503 34.0173C27.3003 34.234 28.0587 34.3965 28.9253 34.5048C29.792 34.6132 30.9837 34.6673 32.5003 34.6673C32.5003 34.2701 32.3833 33.8909 32.1493 33.5298C31.9139 33.1687 31.6337 32.934 31.3087 32.8257L18.6337 28.1673H15.167V40.084L30.2253 44.2007Z" fill="#A005D7"/>
</g>
</svg>
